<?xml version="1.0" encoding="UTF-8" standalone="no"?>
<!DOCTYPE svg PUBLIC "-//W3C//DTD SVG 1.1//EN"
 "http://www.w3.org/Graphics/SVG/1.1/DTD/svg11.dtd">
<!-- Generated by graphviz version 2.40.1 (20161225.0304)
 -->
<!-- Title: %3 Pages: 1 -->
<svg width="893pt" height="252pt"
 viewBox="0.00 0.00 893.00 252.00" xmlns="http://www.w3.org/2000/svg" xmlns:xlink="http://www.w3.org/1999/xlink">
<g id="graph0" class="graph" transform="scale(1 1) rotate(0) translate(4 248)">
<title>%3</title>
<polygon fill="#ffffff" stroke="transparent" points="-4,4 -4,-248 889,-248 889,4 -4,4"/>
<!-- AnswerClass -->
<g id="node1" class="node">
<title>AnswerClass</title>
<polygon fill="#ff8a5b" stroke="transparent" points="262.5,-78.5 262.5,-108.5 575.5,-108.5 575.5,-78.5 262.5,-78.5"/>
<polygon fill="none" stroke="#000000" points="262.5,-78.5 262.5,-108.5 575.5,-108.5 575.5,-78.5 262.5,-78.5"/>
<text text-anchor="start" x="381.5" y="-90.1" font-family="Times,serif" font-weight="bold" font-size="18.00" fill="#000000">Answer</text>
<polygon fill="#bfffff" stroke="transparent" points="262.5,-53.5 262.5,-78.5 410.5,-78.5 410.5,-53.5 262.5,-53.5"/>
<polygon fill="none" stroke="#000000" points="262.5,-53.5 262.5,-78.5 410.5,-78.5 410.5,-53.5 262.5,-53.5"/>
<text text-anchor="start" x="328.5" y="-63.3" font-family="Times,serif" font-weight="bold" font-size="14.00" fill="#000000">id</text>
<polygon fill="#bfffff" stroke="transparent" points="410.5,-53.5 410.5,-78.5 575.5,-78.5 575.5,-53.5 410.5,-53.5"/>
<polygon fill="none" stroke="#000000" points="410.5,-53.5 410.5,-78.5 575.5,-78.5 575.5,-53.5 410.5,-53.5"/>
<text text-anchor="start" x="470" y="-62.3" font-family="Times,serif" font-size="14.00" fill="#000000">String</text>
<polygon fill="#ebffff" stroke="transparent" points="262.5,-28.5 262.5,-53.5 410.5,-53.5 410.5,-28.5 262.5,-28.5"/>
<polygon fill="none" stroke="#000000" points="262.5,-28.5 262.5,-53.5 410.5,-53.5 410.5,-28.5 262.5,-28.5"/>
<text text-anchor="start" x="298.5" y="-38.3" font-family="Times,serif" font-weight="bold" font-size="14.00" fill="#000000">choice_id</text>
<polygon fill="#ebffff" stroke="transparent" points="410.5,-28.5 410.5,-53.5 575.5,-53.5 575.5,-28.5 410.5,-28.5"/>
<polygon fill="none" stroke="#000000" points="410.5,-28.5 410.5,-53.5 575.5,-53.5 575.5,-28.5 410.5,-28.5"/>
<text text-anchor="start" x="423" y="-38.3" font-family="Times,serif" font-style="italic" font-size="14.00" fill="#000000">list of </text>
<text text-anchor="start" x="469" y="-38.3" font-family="Times,serif" font-size="14.00" fill="#000000"> ChoiceClass</text>
<polygon fill="#bfffff" stroke="transparent" points="262.5,-3.5 262.5,-28.5 410.5,-28.5 410.5,-3.5 262.5,-3.5"/>
<polygon fill="none" stroke="#000000" points="262.5,-3.5 262.5,-28.5 410.5,-28.5 410.5,-3.5 262.5,-3.5"/>
<text text-anchor="start" x="267.5" y="-13.3" font-family="Times,serif" font-weight="bold" font-size="14.00" fill="#000000">possible_answers</text>
<polygon fill="#bfffff" stroke="transparent" points="410.5,-3.5 410.5,-28.5 575.5,-28.5 575.5,-3.5 410.5,-3.5"/>
<polygon fill="none" stroke="#000000" points="410.5,-3.5 410.5,-28.5 575.5,-28.5 575.5,-3.5 410.5,-3.5"/>
<text text-anchor="start" x="415.5" y="-13.3" font-family="Times,serif" font-style="italic" font-size="14.00" fill="#000000">list of </text>
<text text-anchor="start" x="461.5" y="-13.3" font-family="Times,serif" font-size="14.00" fill="#000000"> QuestionClass</text>
</g>
<!-- ChoiceClass -->
<g id="node2" class="node">
<title>ChoiceClass</title>
<polygon fill="#ff8a5b" stroke="transparent" points="611,-103.5 611,-133.5 885,-133.5 885,-103.5 611,-103.5"/>
<polygon fill="none" stroke="#000000" points="611,-103.5 611,-133.5 885,-133.5 885,-103.5 611,-103.5"/>
<text text-anchor="start" x="713.5" y="-115.1" font-family="Times,serif" font-weight="bold" font-size="18.00" fill="#000000">Choice</text>
<polygon fill="#bfffff" stroke="transparent" points="611,-78.5 611,-103.5 731,-103.5 731,-78.5 611,-78.5"/>
<polygon fill="none" stroke="#000000" points="611,-78.5 611,-103.5 731,-103.5 731,-78.5 611,-78.5"/>
<text text-anchor="start" x="663" y="-88.3" font-family="Times,serif" font-weight="bold" font-size="14.00" fill="#000000">id</text>
<polygon fill="#bfffff" stroke="transparent" points="731,-78.5 731,-103.5 885,-103.5 885,-78.5 731,-78.5"/>
<polygon fill="none" stroke="#000000" points="731,-78.5 731,-103.5 885,-103.5 885,-78.5 731,-78.5"/>
<text text-anchor="start" x="785" y="-87.3" font-family="Times,serif" font-size="14.00" fill="#000000">String</text>
<polygon fill="#ebffff" stroke="transparent" points="611,-53.5 611,-78.5 731,-78.5 731,-53.5 611,-53.5"/>
<polygon fill="none" stroke="#000000" points="611,-53.5 611,-78.5 731,-78.5 731,-53.5 611,-53.5"/>
<text text-anchor="start" x="649" y="-63.3" font-family="Times,serif" font-weight="bold" font-size="14.00" fill="#000000">name</text>
<polygon fill="#ebffff" stroke="transparent" points="731,-53.5 731,-78.5 885,-78.5 885,-53.5 731,-53.5"/>
<polygon fill="none" stroke="#000000" points="731,-53.5 731,-78.5 885,-78.5 885,-53.5 731,-53.5"/>
<text text-anchor="start" x="785" y="-62.3" font-family="Times,serif" font-size="14.00" fill="#000000">String</text>
<polygon fill="#bfffff" stroke="transparent" points="611,-28.5 611,-53.5 731,-53.5 731,-28.5 611,-28.5"/>
<polygon fill="none" stroke="#000000" points="611,-28.5 611,-53.5 731,-53.5 731,-28.5 611,-28.5"/>
<text text-anchor="start" x="616" y="-38.3" font-family="Times,serif" font-weight="bold" font-size="14.00" fill="#000000">used_answers</text>
<polygon fill="#bfffff" stroke="transparent" points="731,-28.5 731,-53.5 885,-53.5 885,-28.5 731,-28.5"/>
<polygon fill="none" stroke="#000000" points="731,-28.5 731,-53.5 885,-53.5 885,-28.5 731,-28.5"/>
<text text-anchor="start" x="736" y="-38.3" font-family="Times,serif" font-style="italic" font-size="14.00" fill="#000000">list of </text>
<text text-anchor="start" x="782" y="-38.3" font-family="Times,serif" font-size="14.00" fill="#000000"> AnswerClass</text>
</g>
<!-- AnswerClass&#45;&gt;ChoiceClass -->
<g id="edge1" class="edge">
<title>AnswerClass:1&#45;&gt;ChoiceClass:2</title>
<path fill="none" stroke="#000000" d="M575,-40.5C587,-40.5 592.25,-40.5 600.875,-40.5"/>
<polygon fill="#000000" stroke="#000000" points="601,-44.0001 611,-40.5 601,-37.0001 601,-44.0001"/>
<text text-anchor="middle" x="604.5" y="-29.3" font-family="Times,serif" font-size="14.00" fill="#000000">N</text>
<text text-anchor="middle" x="581.5" y="-29.3" font-family="Times,serif" font-size="14.00" fill="#000000">N</text>
</g>
<!-- FormClass -->
<g id="node3" class="node">
<title>FormClass</title>
<polygon fill="#ff8a5b" stroke="transparent" points="269.5,-209.5 269.5,-239.5 568.5,-239.5 568.5,-209.5 269.5,-209.5"/>
<polygon fill="none" stroke="#000000" points="269.5,-209.5 269.5,-239.5 568.5,-239.5 568.5,-209.5 269.5,-209.5"/>
<text text-anchor="start" x="392.5" y="-221.1" font-family="Times,serif" font-weight="bold" font-size="18.00" fill="#000000">Form</text>
<polygon fill="#bfffff" stroke="transparent" points="269.5,-184.5 269.5,-209.5 403.5,-209.5 403.5,-184.5 269.5,-184.5"/>
<polygon fill="none" stroke="#000000" points="269.5,-184.5 269.5,-209.5 403.5,-209.5 403.5,-184.5 269.5,-184.5"/>
<text text-anchor="start" x="328.5" y="-194.3" font-family="Times,serif" font-weight="bold" font-size="14.00" fill="#000000">id</text>
<polygon fill="#bfffff" stroke="transparent" points="403.5,-184.5 403.5,-209.5 568.5,-209.5 568.5,-184.5 403.5,-184.5"/>
<polygon fill="none" stroke="#000000" points="403.5,-184.5 403.5,-209.5 568.5,-209.5 568.5,-184.5 403.5,-184.5"/>
<text text-anchor="start" x="463" y="-193.3" font-family="Times,serif" font-size="14.00" fill="#000000">String</text>
<polygon fill="#ebffff" stroke="transparent" points="269.5,-159.5 269.5,-184.5 403.5,-184.5 403.5,-159.5 269.5,-159.5"/>
<polygon fill="none" stroke="#000000" points="269.5,-159.5 269.5,-184.5 403.5,-184.5 403.5,-159.5 269.5,-159.5"/>
<text text-anchor="start" x="314.5" y="-169.3" font-family="Times,serif" font-weight="bold" font-size="14.00" fill="#000000">name</text>
<polygon fill="#ebffff" stroke="transparent" points="403.5,-159.5 403.5,-184.5 568.5,-184.5 568.5,-159.5 403.5,-159.5"/>
<polygon fill="none" stroke="#000000" points="403.5,-159.5 403.5,-184.5 568.5,-184.5 568.5,-159.5 403.5,-159.5"/>
<text text-anchor="start" x="463" y="-168.3" font-family="Times,serif" font-size="14.00" fill="#000000">String</text>
<polygon fill="#bfffff" stroke="transparent" points="269.5,-134.5 269.5,-159.5 403.5,-159.5 403.5,-134.5 269.5,-134.5"/>
<polygon fill="none" stroke="#000000" points="269.5,-134.5 269.5,-159.5 403.5,-159.5 403.5,-134.5 269.5,-134.5"/>
<text text-anchor="start" x="274.5" y="-144.3" font-family="Times,serif" font-weight="bold" font-size="14.00" fill="#000000">form_questions</text>
<polygon fill="#bfffff" stroke="transparent" points="403.5,-134.5 403.5,-159.5 568.5,-159.5 568.5,-134.5 403.5,-134.5"/>
<polygon fill="none" stroke="#000000" points="403.5,-134.5 403.5,-159.5 568.5,-159.5 568.5,-134.5 403.5,-134.5"/>
<text text-anchor="start" x="408.5" y="-144.3" font-family="Times,serif" font-style="italic" font-size="14.00" fill="#000000">list of </text>
<text text-anchor="start" x="454.5" y="-144.3" font-family="Times,serif" font-size="14.00" fill="#000000"> QuestionClass</text>
</g>
<!-- QuestionClass -->
<g id="node4" class="node">
<title>QuestionClass</title>
<polygon fill="#ff8a5b" stroke="transparent" points="0,-168.5 0,-198.5 226,-198.5 226,-168.5 0,-168.5"/>
<polygon fill="none" stroke="#000000" points="0,-168.5 0,-198.5 226,-198.5 226,-168.5 0,-168.5"/>
<text text-anchor="start" x="67.5" y="-180.1" font-family="Times,serif" font-weight="bold" font-size="18.00" fill="#000000">Question</text>
<polygon fill="#bfffff" stroke="transparent" points="0,-143.5 0,-168.5 122,-168.5 122,-143.5 0,-143.5"/>
<polygon fill="none" stroke="#000000" points="0,-143.5 0,-168.5 122,-168.5 122,-143.5 0,-143.5"/>
<text text-anchor="start" x="53" y="-153.3" font-family="Times,serif" font-weight="bold" font-size="14.00" fill="#000000">id</text>
<polygon fill="#bfffff" stroke="transparent" points="122,-143.5 122,-168.5 226,-168.5 226,-143.5 122,-143.5"/>
<polygon fill="none" stroke="#000000" points="122,-143.5 122,-168.5 226,-168.5 226,-143.5 122,-143.5"/>
<text text-anchor="start" x="151" y="-152.3" font-family="Times,serif" font-size="14.00" fill="#000000">String</text>
<polygon fill="#ebffff" stroke="transparent" points="0,-118.5 0,-143.5 122,-143.5 122,-118.5 0,-118.5"/>
<polygon fill="none" stroke="#000000" points="0,-118.5 0,-143.5 122,-143.5 122,-118.5 0,-118.5"/>
<text text-anchor="start" x="30.5" y="-128.3" font-family="Times,serif" font-weight="bold" font-size="14.00" fill="#000000">form_id</text>
<polygon fill="#ebffff" stroke="transparent" points="122,-118.5 122,-143.5 226,-143.5 226,-118.5 122,-118.5"/>
<polygon fill="none" stroke="#000000" points="122,-118.5 122,-143.5 226,-143.5 226,-118.5 122,-118.5"/>
<text text-anchor="start" x="135.5" y="-127.3" font-family="Times,serif" font-size="14.00" fill="#000000">FormClass</text>
<polygon fill="#bfffff" stroke="transparent" points="0,-93.5 0,-118.5 122,-118.5 122,-93.5 0,-93.5"/>
<polygon fill="none" stroke="#000000" points="0,-93.5 0,-118.5 122,-118.5 122,-93.5 0,-93.5"/>
<text text-anchor="start" x="39" y="-103.3" font-family="Times,serif" font-weight="bold" font-size="14.00" fill="#000000">name</text>
<polygon fill="#bfffff" stroke="transparent" points="122,-93.5 122,-118.5 226,-118.5 226,-93.5 122,-93.5"/>
<polygon fill="none" stroke="#000000" points="122,-93.5 122,-118.5 226,-118.5 226,-93.5 122,-93.5"/>
<text text-anchor="start" x="151" y="-102.3" font-family="Times,serif" font-size="14.00" fill="#000000">String</text>
<polygon fill="#ebffff" stroke="transparent" points="0,-68.5 0,-93.5 122,-93.5 122,-68.5 0,-68.5"/>
<polygon fill="none" stroke="#000000" points="0,-68.5 0,-93.5 122,-93.5 122,-68.5 0,-68.5"/>
<text text-anchor="start" x="26.5" y="-78.3" font-family="Times,serif" font-weight="bold" font-size="14.00" fill="#000000">required</text>
<polygon fill="#ebffff" stroke="transparent" points="122,-68.5 122,-93.5 226,-93.5 226,-68.5 122,-68.5"/>
<polygon fill="none" stroke="#000000" points="122,-68.5 122,-93.5 226,-93.5 226,-68.5 122,-68.5"/>
<text text-anchor="start" x="145" y="-77.3" font-family="Times,serif" font-size="14.00" fill="#000000">Boolean</text>
<polygon fill="#bfffff" stroke="transparent" points="0,-43.5 0,-68.5 122,-68.5 122,-43.5 0,-43.5"/>
<polygon fill="none" stroke="#000000" points="0,-43.5 0,-68.5 122,-68.5 122,-43.5 0,-43.5"/>
<text text-anchor="start" x="5" y="-53.3" font-family="Times,serif" font-weight="bold" font-size="14.00" fill="#000000">question_type</text>
<polygon fill="#bfffff" stroke="transparent" points="122,-43.5 122,-68.5 226,-68.5 226,-43.5 122,-43.5"/>
<polygon fill="none" stroke="#000000" points="122,-43.5 122,-68.5 226,-68.5 226,-43.5 122,-43.5"/>
<text text-anchor="start" x="152.5" y="-52.3" font-family="Times,serif" font-size="14.00" fill="#000000">Enum</text>
<polygon fill="#ebffff" stroke="transparent" points="0,-18.5 0,-43.5 122,-43.5 122,-18.5 0,-18.5"/>
<polygon fill="none" stroke="#000000" points="0,-18.5 0,-43.5 122,-43.5 122,-18.5 0,-18.5"/>
<text text-anchor="start" x="21.5" y="-28.3" font-family="Times,serif" font-weight="bold" font-size="14.00" fill="#000000">answer_id</text>
<polygon fill="#ebffff" stroke="transparent" points="122,-18.5 122,-43.5 226,-43.5 226,-18.5 122,-18.5"/>
<polygon fill="none" stroke="#000000" points="122,-18.5 122,-43.5 226,-43.5 226,-18.5 122,-18.5"/>
<text text-anchor="start" x="127" y="-27.3" font-family="Times,serif" font-size="14.00" fill="#000000">AnswerClass</text>
</g>
<!-- QuestionClass&#45;&gt;AnswerClass -->
<g id="edge3" class="edge">
<title>QuestionClass:5&#45;&gt;AnswerClass:2</title>
<path fill="none" stroke="#000000" d="M226,-30.5C239.5651,-30.5 243.4894,-21.5269 252.6861,-17.461"/>
<polygon fill="#000000" stroke="#000000" points="253.3797,-20.8917 262.5,-15.5 252.008,-14.0274 253.3797,-20.8917"/>
<text text-anchor="middle" x="256" y="-4.3" font-family="Times,serif" font-size="14.00" fill="#000000">N</text>
<text text-anchor="middle" x="231" y="-19.3" font-family="Times,serif" font-size="14.00" fill="#000000">1</text>
</g>
<!-- QuestionClass&#45;&gt;FormClass -->
<g id="edge2" class="edge">
<title>QuestionClass:1&#45;&gt;FormClass:2</title>
<path fill="none" stroke="#000000" d="M226,-131.5C242.4562,-131.5 247.3533,-141.2128 259.2942,-145.0069"/>
<polygon fill="#000000" stroke="#000000" points="259.0986,-148.5155 269.5,-146.5 260.112,-141.5892 259.0986,-148.5155"/>
<text text-anchor="middle" x="263" y="-135.3" font-family="Times,serif" font-size="14.00" fill="#000000">N</text>
<text text-anchor="middle" x="231" y="-120.3" font-family="Times,serif" font-size="14.00" fill="#000000">1</text>
</g>
</g>
</svg>
